<?xml version="1.0" standalone="no"?>
<svg height="1588.242" preserveAspectRatio="none" viewBox="0.000 0.000 1123.000 1588.242" width="1123.000" x="0.000" xmlns="http://www.w3.org/2000/svg" xmlns:svg="http://www.w3.org/2000/svg" xmlns:xlink="http://www.w3.org/1999/xlink" y="0.000">
<svg width="1123" height="1588.242" xmlns="http://www.w3.org/2000/svg"><defs><clipPath id="9Y6whFPpclipPath1"><path fill="#000000" stroke="none" d="M 0 0 L 1123 0 L 1123 1588.242 L 0 1588.242 Z"/></clipPath></defs><g><g clip-path="url(#9Y6whFPpclipPath1)"><g transform="matrix(1 0 0 1 571 405.5)"><path fill="none" stroke="#000000" stroke-miterlimit="10" stroke-width="2" d="M -508.543 -345.188 C -215.512 -339.621 76.613 -338.758 508.504 -345.063 M -508.133 -345.352 C -270.289 -341.273 -33.215 -341.164 507.742 -345.355 M 508.309 -344.711 C 511.961 -192.426 511.801 -40.465 507.836 345.832 M 507.918 -345.535 C 509.668 -145.496 509.375 54.539 507.836 345.668 M 507.871 344.844 C 246.484 336.859 -14.855 337.27 -508.539 344.801 M 508.07 345.559 C 237.344 347.711 -33.563 347.359 -507.789 345.605 M -508.453 345.902 C -509.766 69.902 -509.402 -206.59 -507.613 -346.07 M -507.875 345.617 C -509.305 94.195 -509.152 -157.137 -507.801 -345.113"/></g><g transform="matrix(1 0 0 1 564 409)"><path fill="none" stroke="#1a5fb3" stroke-miterlimit="10" stroke-width="2" d="M -31.543 -340.57 C -13.441 -339.379 5.211 -341.781 29.152 -342.203 M -31.254 -342.813 C -7.141 -341.559 15.832 -341.781 31.066 -342.211 M 31.152 -342.012 C 36.223 -142.965 35.391 57.734 31.023 342.387 M 30.672 -342.211 C 30.035 -180.586 29.816 -19.867 30.93 342.055 M 29.734 342.969 C 17.043 341.801 4.645 342.727 -29.473 343.551 M 31.738 341.289 C 7.484 341.094 -18.34 342.02 -31.766 342.891 M -30.988 342.742 C -25.617 103.797 -25.676 -133.102 -31.563 -341.941 M -31.168 341.625 C -33.93 147.531 -34.18 -47.246 -31.234 -342.313"/></g><g transform="matrix(0.673 0 0 1 481 402.5)"><path fill="none" stroke="#26a169" stroke-miterlimit="10" stroke-width="1.641" d="M 31.372 -294.344 C 11.388 -292.383 -8.817 -291.582 -30.861 -292.992 M 30.913 -293.629 C 11.312 -293.188 -7.888 -293.777 -31.726 -293.73 M -30.298 -294.207 C -32.446 -69.145 -32.237 155.73 -31.645 293.137 M -30.797 -293.266 C -29.869 -128.992 -30.054 36.375 -30.623 293.551 M -30.507 292.816 C -14.157 295.113 -0.139 291.453 30.966 293.016 M -30.565 293.738 C -17.128 292.43 -2.966 292.656 31.772 294.168 M 31.621 294.145 C 33.2 86.262 32.562 -119.195 30.832 -294.113 M 30.803 293.195 C 27.965 62.543 27.884 -168.777 30.664 -293.391"/></g><g transform="matrix(0.7809 0 0 0.9331 647.508 403.8021)"><path fill="none" stroke="#26a169" stroke-miterlimit="10" stroke-width="1.706795" d="M -26.723 -314.643 C -6.188 -312.922 11.535 -315.869 26.687 -315.539 M -25.602 -314.994 C -15.452 -314.664 -3.957 -315.89 26.267 -315.413 M 25.812 -314.877 C 28.503 -165.347 27.628 -16.378 27.297 315.213 M 26.837 -315.216 C 30.549 -143.03 30.429 29.198 26.727 315.259 M 27.368 313.777 C 13.231 313.271 2.486 314.393 -26.998 313.669 M 25.642 314.812 C 7.568 315.293 -13.246 313.769 -27.338 314.355 M -26.233 314.983 C -24.177 67.101 -24.607 -180.828 -26.443 -315.145 M -26.583 315.063 C -22.166 177.857 -21.966 40.853 -26.558 -314.969"/></g></g></g></svg>
</svg>