<?xml version="1.0" standalone="no"?>
<svg height="1588.242" preserveAspectRatio="none" viewBox="0.000 0.000 1123.000 1588.242" width="1123.000" x="0.000" xmlns="http://www.w3.org/2000/svg" xmlns:svg="http://www.w3.org/2000/svg" xmlns:xlink="http://www.w3.org/1999/xlink" y="0.000">
<svg width="1123" height="1588.242" xmlns="http://www.w3.org/2000/svg"><defs><clipPath id="eAccFcZFclipPath1"><path fill="#000000" stroke="none" d="M 0 0 L 1123 0 L 1123 1588.242 L 0 1588.242 Z"/></clipPath></defs><g><g clip-path="url(#eAccFcZFclipPath1)"><g transform="matrix(1 0 0 1 571 405.5)"><path fill="none" stroke="#000000" stroke-miterlimit="10" stroke-width="2" d="M -508.543 -345.188 C -215.512 -339.621 76.613 -338.758 508.504 -345.063 M -508.133 -345.352 C -270.289 -341.273 -33.215 -341.164 507.742 -345.355 M 508.309 -344.711 C 511.961 -192.426 511.801 -40.465 507.836 345.832 M 507.918 -345.535 C 509.668 -145.496 509.375 54.539 507.836 345.668 M 507.871 344.844 C 246.484 336.859 -14.855 337.27 -508.539 344.801 M 508.07 345.559 C 237.344 347.711 -33.563 347.359 -507.789 345.605 M -508.453 345.902 C -509.766 69.902 -509.402 -206.59 -507.613 -346.07 M -507.875 345.617 C -509.305 94.195 -509.152 -157.137 -507.801 -345.113"/></g><g transform="matrix(1 0 0 1 564 409)"><path fill="none" stroke="#1a5fb3" stroke-miterlimit="10" stroke-width="2" d="M -31.543 -340.57 C -13.441 -339.379 5.211 -341.781 29.152 -342.203 M -31.254 -342.813 C -7.141 -341.559 15.832 -341.781 31.066 -342.211 M 31.152 -342.012 C 36.223 -142.965 35.391 57.734 31.023 342.387 M 30.672 -342.211 C 30.035 -180.586 29.816 -19.867 30.93 342.055 M 29.734 342.969 C 17.043 341.801 4.645 342.727 -29.473 343.551 M 31.738 341.289 C 7.484 341.094 -18.34 342.02 -31.766 342.891 M -30.988 342.742 C -25.617 103.797 -25.676 -133.102 -31.563 -341.941 M -31.168 341.625 C -33.93 147.531 -34.18 -47.246 -31.234 -342.313"/></g><g transform="matrix(0.766 0 0 0.9257 659.5 407)"><path fill="none" stroke="#26a169" stroke-miterlimit="10" stroke-width="1.684159" d="M -26.72 -314.646 C -6.185 -312.924 11.54 -315.87 26.684 -315.536 M -25.603 -314.992 C -15.456 -314.663 -3.957 -315.891 26.271 -315.414 M 25.812 -314.878 C 28.5 -165.347 27.628 -16.378 27.301 315.211 M 26.837 -315.22 C 30.549 -143.032 30.427 29.198 26.73 315.258 M 27.367 313.777 C 13.227 313.274 2.483 314.393 -26.995 313.667 M 25.639 314.811 C 7.567 315.292 -13.243 313.768 -27.337 314.355 M -26.235 314.984 C -24.18 67.102 -24.604 -180.826 -26.445 -315.148 M -26.582 315.064 C -22.166 177.855 -21.967 40.854 -26.557 -314.971"/></g><g transform="matrix(0.6731 0 0 1 481 402.5)"><path fill="none" stroke="#26a169" stroke-miterlimit="10" stroke-width="1.640825" d="M 31.374 -294.344 C 11.387 -292.383 -8.816 -291.582 -30.858 -292.992 M 30.91 -293.629 C 11.317 -293.188 -7.887 -293.777 -31.728 -293.73 M -30.295 -294.207 C -32.448 -69.145 -32.239 155.73 -31.647 293.137 M -30.794 -293.266 C -29.871 -128.992 -30.051 36.375 -30.62 293.551 M -30.509 292.816 C -14.155 295.113 -0.139 291.453 30.968 293.016 M -30.562 293.738 C -17.126 292.43 -2.966 292.656 31.775 294.168 M 31.618 294.145 C 33.202 86.262 32.564 -119.195 30.834 -294.113 M 30.8 293.195 C 27.967 62.543 27.886 -168.777 30.666 -293.391"/></g></g></g></svg>
</svg>